<svg width="16" height="16" viewBox="0 0 16 16" fill="none" xmlns="http://www.w3.org/2000/svg">
<path d="M15.2115 3.65599L12.4306 0.89169L12.3806 0.841733C12.0476 0.508684 11.548 0.492032 11.1817 0.75847C11.1317 0.791775 11.0817 0.841733 11.0318 0.89169L1.83966 10.0672C1.65648 10.2503 1.55657 10.5001 1.55657 10.7666C1.53991 10.8165 1.50661 10.8665 1.48996 10.9164L0.507466 14.6799C0.490813 14.7465 0.490813 14.8298 0.490813 14.8964C0.474161 15.0629 0.540771 15.2294 0.657337 15.346C0.773904 15.4625 0.923776 15.5292 1.07365 15.5292C1.0903 15.5292 1.10695 15.5292 1.14026 15.5292C1.15691 15.5292 1.15691 15.5292 1.17356 15.5292C1.22352 15.5292 1.27348 15.5292 1.34009 15.5125L5.12018 14.6133C5.20344 14.5966 5.27005 14.5633 5.33666 14.5134C5.58645 14.5134 5.81958 14.4134 6.01941 14.2303L15.2115 5.03814C15.4613 4.78835 15.5446 4.4553 15.478 4.13891C15.428 3.97238 15.3448 3.80586 15.2115 3.65599ZM11.548 1.29135C11.598 1.24139 11.6646 1.22474 11.7312 1.22474C11.7978 1.22474 11.8644 1.25804 11.9144 1.308L11.9643 1.35796L14.7286 4.12226L14.7453 4.13891C14.8452 4.23882 14.8452 4.40535 14.7453 4.52191L13.463 5.80415C13.3631 5.90406 13.1799 5.90406 13.08 5.80415L10.2491 2.97324C10.1992 2.92328 10.1659 2.85667 10.1659 2.79006C10.1659 2.72345 10.1992 2.65684 10.2491 2.60689L11.548 1.29135ZM12.4306 6.85325C12.3307 6.95316 12.1475 6.95316 12.0476 6.85325L9.21667 4.02234C9.11676 3.92243 9.11676 3.7559 9.21667 3.63934L9.64964 3.20637C9.68294 3.27298 9.7329 3.33959 9.79951 3.4062L12.6304 6.23711C12.697 6.30372 12.7803 6.37033 12.8635 6.40364L12.4306 6.85325ZM4.17099 12.8648L3.20515 11.8989L9.69959 5.40449L10.6654 6.37033L4.17099 12.8648ZM2.30593 10.5334L8.60053 4.23882C8.65049 4.32208 8.70045 4.40535 8.76706 4.48861L9.23333 4.95488L2.73889 11.4493L2.30593 11.0164C2.23932 10.9497 2.20601 10.8665 2.20601 10.7832C2.20601 10.6833 2.23932 10.6 2.30593 10.5334ZM2.32258 14.6133L1.44 13.714L1.98953 11.5992L4.48739 14.097L2.32258 14.6133ZM5.55314 13.764C5.41993 13.8972 5.20344 13.8972 5.07022 13.764L4.62061 13.3144L11.115 6.81995L11.598 7.30287C11.6646 7.36947 11.7478 7.43608 11.8478 7.46939L5.55314 13.764Z" fill="black"/>
</svg>
